<svg xmlns="http://www.w3.org/2000/svg" width="1346" height="850" viewBox="0 0 1346 850">
  <g id="EK_Logo" data-name="EK Logo" transform="translate(10478 12179)">
    <ellipse id="Ellipse_87" data-name="Ellipse 87" cx="156.5" cy="157" rx="156.5" ry="157" transform="translate(-10478 -12179)"/>
    <ellipse id="Ellipse_88" data-name="Ellipse 88" cx="156.5" cy="157" rx="156.5" ry="157" transform="translate(-9445 -12179)"/>
    <path id="Path_3521" data-name="Path 3521" d="M271.5,0c49.374,0,93.6,16,134.176,37.361,43.522,22.915,82.294,52.9,106.311,96.87,20.964,38.378,27.643,88.38,27.643,135.463l.856,310.625c0,53.339-10.222,106.136-36.659,147.489-31.1,48.648-80.257,80.984-135.865,101.969C338.3,840.972,305.238,850,271.5,850,167.438,850,58.818,774.8,27.705,715.779,7.611,677.883,1.092,618.455,0,578.5L1.117,271.191c0-13.727.485-26.462,1.736-40.541C5.727,189.828,14.88,150.764,34.488,124.26,68.832,66.236,175.385,0,271.5,0Z" transform="translate(-10076 -12179)"/>
  </g>
</svg>
